<?xml version="1.0" encoding="utf-8"?>
<svg width="75" height="46" viewBox="0 0 75 46" fill="none" xmlns="http://www.w3.org/2000/svg">
  <path d="M 30.96 22.906 C 30.89 22.906 30.82 22.921 30.756 22.951 C 30.692 22.981 30.636 23.025 30.591 23.08 C 30.55 23.128 30.519 23.184 30.5 23.245 C 30.481 23.305 30.474 23.368 30.48 23.431 C 30.486 23.494 30.504 23.556 30.533 23.612 C 30.563 23.668 30.603 23.717 30.652 23.757 C 31.752 24.708 32.435 26.053 32.555 27.502 C 32.674 28.952 32.22 30.39 31.29 31.508 C 30.36 32.626 29.028 33.334 27.581 33.481 C 26.135 33.628 24.688 33.201 23.553 32.292 C 23.504 32.252 23.448 32.221 23.387 32.202 C 23.327 32.184 23.263 32.177 23.2 32.183 C 23.137 32.189 23.076 32.207 23.02 32.236 C 22.964 32.266 22.914 32.306 22.873 32.355 C 22.833 32.403 22.802 32.46 22.784 32.52 C 22.765 32.581 22.758 32.644 22.764 32.707 C 22.77 32.77 22.788 32.832 22.818 32.888 C 22.847 32.944 22.887 32.993 22.936 33.034 C 23.591 33.599 24.353 34.028 25.175 34.296 C 25.998 34.563 26.866 34.665 27.729 34.593 C 28.591 34.522 29.43 34.279 30.198 33.88 C 30.966 33.481 31.646 32.932 32.199 32.267 C 32.753 31.602 33.168 30.833 33.421 30.006 C 33.674 29.178 33.76 28.309 33.673 27.448 C 33.587 26.587 33.329 25.752 32.917 24.991 C 32.504 24.231 31.943 23.56 31.269 23.019 C 31.183 22.945 31.073 22.906 30.96 22.906 Z" fill="#E13A4B" style="transform-box: fill-box; transform-origin: 50% 50%;" transform="matrix(-1, 0, 0, -1, -0.000002, 0.000005)"/>
  <path d="M 24.253 24.09 C 24.126 24.09 24.003 24.14 23.913 24.231 C 23.823 24.321 23.772 24.444 23.772 24.571 C 23.773 25.669 23.448 26.743 22.838 27.656 C 22.229 28.569 21.362 29.281 20.347 29.7 C 19.333 30.12 18.216 30.23 17.14 30.014 C 16.063 29.799 15.075 29.269 14.299 28.492 C 14.209 28.402 14.086 28.351 13.958 28.351 C 13.83 28.352 13.707 28.403 13.617 28.493 C 13.527 28.584 13.476 28.707 13.477 28.835 C 13.477 28.963 13.528 29.086 13.619 29.176 C 14.529 30.087 15.69 30.707 16.953 30.958 C 18.216 31.209 19.525 31.08 20.715 30.587 C 21.905 30.095 22.922 29.26 23.638 28.189 C 24.353 27.118 24.735 25.859 24.735 24.571 C 24.735 24.444 24.684 24.321 24.594 24.231 C 24.504 24.14 24.381 24.09 24.253 24.09 Z" fill="#E13A4B" style="transform-box: fill-box; transform-origin: 50% 50%;" transform="matrix(-1, 0, 0, -1, -0.000001, -0.000003)"/>
  <path d="M 75 27.236 C 74.997 30.065 73.871 32.777 71.871 34.777 C 69.871 36.777 67.159 37.903 64.33 37.906 C 63.617 37.906 62.906 37.834 62.207 37.691 C 60.863 40.257 58.756 42.343 56.178 43.663 C 53.599 44.982 50.675 45.471 47.807 45.061 C 44.94 44.652 42.27 43.364 40.164 41.375 C 38.058 39.385 36.62 36.793 36.048 33.953 C 35.608 33.953 35.004 33.918 34.917 33.905 C 33.26 33.765 31.65 33.281 30.19 32.484 C 28.73 31.688 27.452 30.596 26.437 29.279 C 25.422 27.961 24.692 26.447 24.294 24.832 C 23.896 23.217 23.839 21.537 24.125 19.899 C 16.56 19.208 14.614 13.384 14.219 11.791 C 8.883 11.618 4.962 10.102 2.57 7.296 C 0.232 4.541 -0.021 0.765 0.001 0.44 C 0.012 0.32 0.068 0.209 0.157 0.127 C 0.246 0.046 0.362 0.001 0.483 0 C 0.606 0.005 0.724 0.057 0.81 0.146 C 0.897 0.234 0.946 0.352 0.948 0.476 C 0.955 0.64 0.97 0.804 0.993 0.967 C 1.334 2.216 3.241 3.764 5.518 4.659 C 7.04 5.257 10.947 6.406 14.367 4.21 C 20.468 0.293 30.653 1.449 35.932 3.523 C 39.804 5.045 46.336 2.977 49.004 2.001 C 51.718 0.49 54.816 -0.19 57.914 0.046 C 61.011 0.282 63.97 1.423 66.424 3.328 C 68.878 5.233 70.717 7.818 71.713 10.76 C 72.709 13.702 72.818 16.873 72.027 19.876 C 73.934 21.852 75 24.49 75 27.236 Z M 56.726 0.954 C 54.182 0.954 51.68 1.607 49.46 2.852 L 49.389 2.884 C 46.914 3.793 42.9 5.022 39.339 5.022 C 38.065 5.052 36.796 4.844 35.598 4.409 C 30.512 2.412 20.728 1.278 14.907 5.013 C 12.238 6.724 8.693 6.92 5.187 5.549 C 3.839 5.04 2.597 4.287 1.523 3.327 C 3.068 8.166 7.464 10.69 14.621 10.837 C 14.731 10.84 14.838 10.88 14.923 10.951 C 15.007 11.022 15.065 11.12 15.086 11.229 C 15.135 11.525 16.297 18.451 24.671 18.952 C 26.277 18.858 27.648 18.309 28.678 16.941 C 29.072 16.42 29.358 15.826 29.52 15.193 C 29.682 14.56 29.717 13.902 29.622 13.255 C 29.55 12.75 29.38 12.265 29.12 11.826 C 28.86 11.387 28.516 11.004 28.109 10.698 C 27.701 10.392 27.236 10.17 26.743 10.043 C 26.249 9.917 25.735 9.889 25.23 9.961 C 24.44 10.074 23.728 10.497 23.25 11.135 C 22.771 11.773 22.565 12.575 22.677 13.364 C 22.765 13.971 23.09 14.518 23.581 14.886 C 24.071 15.253 24.687 15.412 25.294 15.326 C 25.753 15.259 26.167 15.013 26.445 14.642 C 26.723 14.271 26.844 13.805 26.781 13.345 C 26.757 13.175 26.699 13.012 26.611 12.864 C 26.524 12.716 26.408 12.587 26.27 12.485 C 26.134 12.381 25.979 12.306 25.813 12.264 C 25.648 12.222 25.476 12.212 25.307 12.237 C 25.06 12.276 24.837 12.41 24.687 12.61 C 24.536 12.81 24.47 13.061 24.501 13.31 C 24.51 13.372 24.507 13.436 24.491 13.497 C 24.475 13.558 24.448 13.616 24.41 13.666 C 24.372 13.716 24.325 13.759 24.27 13.791 C 24.216 13.823 24.156 13.844 24.093 13.852 C 24.031 13.862 23.967 13.858 23.905 13.843 C 23.844 13.827 23.786 13.8 23.736 13.762 C 23.685 13.724 23.642 13.676 23.61 13.622 C 23.578 13.568 23.556 13.507 23.547 13.445 C 23.48 12.944 23.612 12.437 23.916 12.032 C 24.219 11.628 24.669 11.359 25.169 11.284 C 25.464 11.241 25.765 11.258 26.053 11.332 C 26.342 11.406 26.614 11.536 26.852 11.715 C 27.091 11.894 27.292 12.118 27.444 12.375 C 27.596 12.631 27.696 12.915 27.738 13.21 C 27.838 13.923 27.652 14.647 27.22 15.223 C 26.788 15.799 26.145 16.181 25.432 16.283 C 24.573 16.404 23.7 16.18 23.006 15.66 C 22.311 15.139 21.852 14.365 21.727 13.506 C 21.578 12.463 21.85 11.403 22.482 10.56 C 23.114 9.717 24.055 9.16 25.098 9.01 C 25.329 8.978 25.562 8.962 25.795 8.962 C 26.959 8.965 28.083 9.387 28.961 10.15 C 29.84 10.914 30.414 11.968 30.579 13.12 C 30.695 13.928 30.643 14.75 30.426 15.537 C 30.21 16.323 29.834 17.057 29.322 17.692 C 28.81 18.327 28.173 18.85 27.45 19.228 C 26.727 19.606 25.934 19.831 25.121 19.889 C 24.825 21.422 24.859 23.001 25.22 24.52 C 25.582 26.039 26.263 27.464 27.218 28.699 C 28.173 29.935 29.38 30.953 30.759 31.685 C 32.138 32.418 33.658 32.848 35.216 32.948 C 36.179 32.99 40.851 33.022 42.768 29.76 C 42.8 29.705 42.842 29.658 42.893 29.62 C 42.943 29.582 43 29.554 43.061 29.538 C 43.122 29.522 43.185 29.518 43.248 29.527 C 43.31 29.535 43.37 29.556 43.425 29.588 C 43.479 29.62 43.527 29.662 43.565 29.712 C 43.603 29.762 43.631 29.82 43.647 29.881 C 43.663 29.942 43.666 30.005 43.658 30.068 C 43.649 30.13 43.628 30.19 43.597 30.245 C 42.043 32.894 39.053 33.658 37.03 33.857 C 37.577 36.483 38.92 38.877 40.877 40.712 C 42.833 42.547 45.308 43.734 47.964 44.112 C 50.619 44.49 53.327 44.04 55.718 42.824 C 58.109 41.608 60.066 39.684 61.324 37.315 C 61.054 37.212 60.789 37.096 60.531 36.965 C 59.5 36.453 58.583 35.736 57.836 34.859 C 57.089 33.982 56.528 32.963 56.187 31.863 C 55.624 30.059 55.801 28.106 56.678 26.432 C 57.556 24.759 59.062 23.503 60.865 22.94 C 61.592 22.711 62.356 22.628 63.114 22.696 C 63.873 22.763 64.61 22.98 65.284 23.334 C 65.959 23.687 66.557 24.171 67.044 24.756 C 67.531 25.341 67.897 26.017 68.122 26.745 C 68.494 27.942 68.376 29.239 67.794 30.35 C 67.212 31.461 66.214 32.296 65.017 32.672 C 64.034 32.978 62.97 32.881 62.058 32.403 C 61.146 31.925 60.461 31.105 60.152 30.123 C 59.902 29.312 59.983 28.435 60.377 27.683 C 60.771 26.932 61.446 26.367 62.256 26.112 C 62.928 25.903 63.657 25.969 64.281 26.296 C 64.905 26.622 65.374 27.183 65.585 27.856 C 65.619 27.976 65.604 28.105 65.545 28.214 C 65.485 28.324 65.385 28.406 65.266 28.444 C 65.147 28.481 65.018 28.471 64.906 28.415 C 64.794 28.359 64.709 28.262 64.667 28.145 C 64.532 27.716 64.232 27.358 63.834 27.149 C 63.436 26.94 62.971 26.898 62.541 27.03 C 61.976 27.21 61.504 27.606 61.229 28.131 C 60.955 28.657 60.899 29.27 61.074 29.837 C 61.187 30.203 61.371 30.544 61.616 30.839 C 61.861 31.135 62.162 31.379 62.502 31.558 C 62.841 31.737 63.212 31.847 63.594 31.882 C 63.976 31.917 64.362 31.877 64.728 31.763 C 65.682 31.465 66.478 30.8 66.942 29.915 C 67.406 29.03 67.5 27.997 67.204 27.043 C 66.821 25.82 65.969 24.8 64.834 24.205 C 63.699 23.61 62.374 23.49 61.151 23.871 C 59.594 24.358 58.295 25.444 57.537 26.888 C 56.779 28.333 56.625 30.019 57.108 31.577 C 57.411 32.554 57.908 33.459 58.571 34.237 C 59.233 35.016 60.046 35.652 60.962 36.108 C 61.774 36.52 62.652 36.788 63.556 36.901 C 63.816 36.92 64.079 36.936 64.343 36.936 C 66.265 36.935 68.144 36.364 69.742 35.293 C 71.339 34.223 72.583 32.703 73.315 30.926 C 74.048 29.148 74.236 27.193 73.856 25.308 C 73.477 23.423 72.546 21.694 71.182 20.339 C 71.121 20.278 71.077 20.203 71.055 20.12 C 71.033 20.037 71.033 19.949 71.057 19.867 C 71.681 17.654 71.784 15.326 71.357 13.067 C 70.931 10.807 69.986 8.677 68.597 6.845 C 67.208 5.012 65.414 3.526 63.354 2.504 C 61.294 1.482 59.026 0.951 56.726 0.954 Z" fill="#E13A4B" style="transform-box: fill-box; transform-origin: 50% 50%;" transform="matrix(-1, 0, 0, -1, -0.000004, -0.000001)"/>
  <path d="M 25.94 9.829 C 25.863 9.83 25.787 9.849 25.718 9.884 C 25.607 9.943 25.523 10.043 25.484 10.163 C 25.446 10.283 25.456 10.414 25.513 10.526 C 27.76 14.893 33.193 14.036 33.248 14.026 C 33.376 14.005 33.49 13.935 33.566 13.829 C 33.641 13.724 33.672 13.594 33.651 13.466 C 33.63 13.338 33.559 13.224 33.454 13.148 C 33.349 13.073 33.218 13.042 33.091 13.063 C 32.892 13.095 28.3 13.808 26.367 10.073 C 26.324 9.998 26.262 9.936 26.187 9.893 C 26.112 9.85 26.026 9.828 25.94 9.829 Z" fill="#E13A4B" style="transform-box: fill-box; transform-origin: 50% 50%;" transform="matrix(-1, 0, 0, -1, 0, -0.000001)"/>
</svg>