<svg width="49" height="138" viewBox="0 0 49 138" fill="none" xmlns="http://www.w3.org/2000/svg">
<path d="M5.1777 41.5858L43.3493 3.41421C44.6092 2.15428 46.7635 3.04662 46.7635 4.82843V81.1716C46.7635 82.9534 44.6092 83.8457 43.3493 82.5858L5.1777 44.4142C4.39665 43.6332 4.39665 42.3668 5.1777 41.5858Z" stroke="#E13A4B" stroke-width="3" stroke-linecap="round"/>
<path d="M12.4386 66.4355L12.9249 66.4492C13.6279 66.4689 14.3092 66.6988 14.881 67.1084C15.1781 67.3213 15.4383 67.5782 15.6544 67.8682C13.5239 67.5025 11.3458 67.5071 9.21689 67.8818C9.43421 67.5856 9.69675 67.3226 9.99814 67.1055C10.5711 66.6926 11.2551 66.4614 11.961 66.4414L12.4386 66.4277V66.4355ZM12.881 63.0264C12.9903 63.0996 13.0779 63.2021 13.1339 63.3213C13.1897 63.4403 13.2127 63.5723 13.1993 63.7031C13.1859 63.8341 13.1367 63.9591 13.0577 64.0645C12.9789 64.1696 12.8728 64.2512 12.7511 64.3008L12.4474 64.4238V64.415L12.1642 64.2793C12.0513 64.2251 11.9543 64.142 11.8829 64.0391C11.8117 63.9362 11.7681 63.8169 11.7569 63.6924C11.7458 63.5677 11.7675 63.4421 11.8194 63.3281C11.8713 63.2142 11.9514 63.1154 12.0528 63.042L12.462 62.7451L12.881 63.0264ZM12.879 61.04C12.9696 61.1083 13.0437 61.197 13.0938 61.2988C13.1438 61.4005 13.1693 61.5127 13.1681 61.626C13.1668 61.7392 13.1391 61.8506 13.087 61.9512C13.0348 62.0519 12.9594 62.1397 12.8673 62.2061L12.4561 62.501L12.0382 62.2207C11.9421 62.1564 11.8626 62.07 11.8067 61.9688C11.751 61.8675 11.72 61.7542 11.7169 61.6387C11.7138 61.5232 11.7389 61.4088 11.7892 61.3047C11.8395 61.2006 11.9134 61.1095 12.006 61.04L12.4435 60.7109L12.879 61.04ZM12.7354 59.0039C12.8503 59.0551 12.9501 59.135 13.0245 59.2363C13.0989 59.3377 13.1458 59.457 13.1602 59.582C13.1746 59.707 13.1559 59.8336 13.1065 59.9492C13.0571 60.0649 12.9783 60.1662 12.878 60.2422L12.4435 60.5703L12.0079 60.2412C11.9076 60.1654 11.8289 60.0648 11.7794 59.9492C11.7299 59.8336 11.7113 59.707 11.7257 59.582C11.7401 59.4571 11.7869 59.3377 11.8614 59.2363C11.9359 59.1351 12.0356 59.0549 12.1505 59.0039L12.4435 58.873L12.7354 59.0039Z" stroke="#E13A4B"/>
<path d="M12.472 91.6541L12.9114 91.7078C13.688 91.8028 14.4128 92.1489 14.9749 92.6931C15.5359 93.2364 15.9041 93.948 16.0247 94.7195V94.7205C16.0258 94.7282 16.0249 94.7359 16.0218 94.7429C16.0186 94.7499 16.0136 94.7562 16.0071 94.7605L15.7855 94.9021V94.7712H9.16632V94.8992L8.94562 94.7576C8.93907 94.7534 8.93423 94.7471 8.93097 94.74C8.92794 94.7333 8.92626 94.7258 8.92706 94.7185C9.04744 93.9462 9.41633 93.234 9.97784 92.6902C10.5399 92.1459 11.2647 91.8 12.0413 91.7048L12.472 91.6521V91.6541ZM9.08722 88.1755H8.58722C8.58248 88.1755 8.57786 88.173 8.57452 88.1697C8.57143 88.1665 8.56975 88.1625 8.56964 88.158V86.9998C11.1453 87.5475 13.8071 87.5482 16.3831 87.0007V88.158C16.383 88.1623 16.3813 88.1665 16.3782 88.1697C16.3749 88.173 16.3702 88.1755 16.3655 88.1755H15.8655V89.8298H12.4808V89.8269H9.08722V88.1755Z" stroke="#E13A4B"/>
<path d="M13.439 69.2908C13.7787 69.3095 14.1176 69.3396 14.4556 69.3787C15.1526 70.7402 15.6824 72.1811 16.0288 73.6716V73.6726C16.978 77.7696 16.4882 81.7741 14.5679 85.6228C14.1927 85.6686 13.8163 85.7025 13.439 85.7234V69.2908Z" stroke="#E13A4B"/>
<path d="M16.8725 69.8418C17.2273 69.939 17.5783 70.0492 17.9253 70.1719C18.8917 71.4858 19.6215 72.9584 20.0766 74.5254V74.5264C21.0764 78.0374 20.4706 81.4511 18.2436 84.7246C17.8238 84.8841 17.3974 85.0241 16.9653 85.1455C18.9133 80.4176 18.6524 76.1727 17.9692 73.2227C17.7006 72.0659 17.3332 70.935 16.8725 69.8418Z" stroke="#E13A4B"/>
<path d="M11.4472 85.7197C11.0659 85.6973 10.6856 85.6613 10.3066 85.6133C8.39673 81.7821 7.90862 77.7932 8.84076 73.7129C9.18674 72.211 9.71819 70.7583 10.4199 69.3867C10.7613 69.3458 11.1039 69.315 11.4472 69.2949V85.7197Z" stroke="#E13A4B"/>
<path d="M7.99637 69.8599C7.53998 70.9459 7.17663 72.0694 6.91043 73.2183C6.22769 76.1665 5.96637 80.4026 7.90457 85.1177C7.4664 84.9921 7.03394 84.8479 6.60867 84.6831C4.40323 81.4209 3.80744 78.0194 4.80301 74.522L4.80203 74.521C5.25283 72.9682 5.97373 71.5077 6.92703 70.2026C7.27928 70.0753 7.63583 69.9607 7.99637 69.8599Z" stroke="#E13A4B"/>
<path d="M3.61719 71.9695C3.33495 72.6084 3.09534 73.266 2.90039 73.9382L2.89941 73.9392C2.24686 76.2041 1.95493 79.3528 3.37891 82.8552C1.5587 81.3919 0.500164 79.5145 0.5 77.5076C0.5 75.4147 1.65127 73.4577 3.61719 71.9695Z" stroke="#E13A4B"/>
<path d="M21.2228 71.8835C23.2571 73.3818 24.4522 75.3737 24.4523 77.5066C24.4523 79.5539 23.3515 81.4675 21.465 82.9431C22.9294 79.4024 22.6377 76.2178 21.9796 73.9382V73.9373C21.7756 73.2351 21.5216 72.5493 21.2228 71.8835Z" stroke="#E13A4B"/>
<path d="M35.4386 88.4355L35.9249 88.4492C36.6279 88.4689 37.3093 88.6988 37.881 89.1084C38.1782 89.3213 38.4383 89.5782 38.6544 89.8682C36.5239 89.5025 34.3459 89.5071 32.2169 89.8818C32.4342 89.5856 32.6968 89.3226 32.9982 89.1055C33.5711 88.6926 34.2551 88.4614 34.9611 88.4414L35.4386 88.4277V88.4355ZM35.881 85.0264C35.9904 85.0996 36.0779 85.2021 36.1339 85.3213C36.1898 85.4403 36.2127 85.5723 36.1993 85.7031C36.1859 85.8341 36.1367 85.9591 36.0577 86.0645C35.9789 86.1696 35.8728 86.2512 35.7511 86.3008L35.4474 86.4238V86.415L35.1642 86.2793C35.0513 86.2251 34.9543 86.142 34.8829 86.0391C34.8117 85.9362 34.7682 85.8169 34.757 85.6924C34.7458 85.5677 34.7675 85.4421 34.8195 85.3281C34.8714 85.2142 34.9515 85.1154 35.0529 85.042L35.462 84.7451L35.881 85.0264ZM35.879 83.04C35.9697 83.1083 36.0438 83.197 36.0939 83.2988C36.1438 83.4005 36.1693 83.5127 36.1681 83.626C36.1669 83.7392 36.1391 83.8506 36.087 83.9512C36.0348 84.0519 35.9594 84.1397 35.8673 84.2061L35.4562 84.501L35.0382 84.2207C34.9421 84.1564 34.8626 84.07 34.8068 83.9688C34.751 83.8675 34.72 83.7542 34.7169 83.6387C34.7138 83.5232 34.7389 83.4088 34.7892 83.3047C34.8395 83.2006 34.9135 83.1095 35.006 83.04L35.4435 82.7109L35.879 83.04ZM35.7355 81.0039C35.8503 81.0551 35.9501 81.135 36.0245 81.2363C36.099 81.3377 36.1459 81.457 36.1603 81.582C36.1747 81.707 36.1559 81.8336 36.1066 81.9492C36.0572 82.0649 35.9783 82.1662 35.8781 82.2422L35.4435 82.5703L35.0079 82.2412C34.9076 82.1654 34.8289 82.0648 34.7794 81.9492C34.7299 81.8336 34.7113 81.707 34.7257 81.582C34.7401 81.4571 34.7869 81.3377 34.8615 81.2363C34.9359 81.1351 35.0356 81.0549 35.1505 81.0039L35.4435 80.873L35.7355 81.0039Z" stroke="#E13A4B"/>
<path d="M35.472 113.654L35.9114 113.708C36.688 113.803 37.4128 114.149 37.9749 114.693C38.5359 115.236 38.9041 115.948 39.0247 116.719V116.72C39.0258 116.728 39.0249 116.736 39.0218 116.743C39.0186 116.75 39.0136 116.756 39.0071 116.76L38.7855 116.902V116.771H32.1663V116.899L31.9456 116.758C31.9391 116.753 31.9342 116.747 31.931 116.74C31.9279 116.733 31.9263 116.726 31.9271 116.719C32.0474 115.946 32.4163 115.234 32.9778 114.69C33.5399 114.146 34.2647 113.8 35.0413 113.705L35.472 113.652V113.654ZM32.0872 110.176H31.5872C31.5825 110.176 31.5779 110.173 31.5745 110.17C31.5714 110.166 31.5698 110.162 31.5696 110.158V109C34.1453 109.547 36.8071 109.548 39.3831 109.001V110.158C39.383 110.162 39.3813 110.166 39.3782 110.17C39.3749 110.173 39.3702 110.176 39.3655 110.176H38.8655V111.83H35.4808V111.827H32.0872V110.176Z" stroke="#E13A4B"/>
<path d="M36.439 91.2908C36.7787 91.3095 37.1176 91.3396 37.4556 91.3787C38.1526 92.7402 38.6824 94.1811 39.0288 95.6716V95.6726C39.978 99.7696 39.4882 103.774 37.5679 107.623C37.1927 107.669 36.8163 107.703 36.439 107.723V91.2908Z" stroke="#E13A4B"/>
<path d="M39.8726 91.8418C40.2273 91.939 40.5783 92.0492 40.9253 92.1719C41.8917 93.4858 42.6215 94.9584 43.0767 96.5254V96.5264C44.0764 100.037 43.4706 103.451 41.2437 106.725C40.8238 106.884 40.3974 107.024 39.9653 107.146C41.9134 102.418 41.6524 98.1727 40.9692 95.2227C40.7006 94.0659 40.3333 92.935 39.8726 91.8418Z" stroke="#E13A4B"/>
<path d="M34.4472 107.72C34.0659 107.697 33.6856 107.661 33.3066 107.613C31.3967 103.782 30.9086 99.7932 31.8408 95.7129C32.1867 94.211 32.7182 92.7583 33.4199 91.3867C33.7613 91.3458 34.1039 91.315 34.4472 91.2949V107.72Z" stroke="#E13A4B"/>
<path d="M30.9964 91.8599C30.54 92.9459 30.1767 94.0694 29.9105 95.2183C29.2277 98.1665 28.9664 102.403 30.9046 107.118C30.4664 106.992 30.034 106.848 29.6087 106.683C27.4033 103.421 26.8075 100.019 27.803 96.522L27.8021 96.521C28.2529 94.9682 28.9738 93.5077 29.9271 92.2026C30.2793 92.0753 30.6359 91.9607 30.9964 91.8599Z" stroke="#E13A4B"/>
<path d="M26.6172 93.9695C26.335 94.6084 26.0953 95.266 25.9004 95.9382L25.8994 95.9392C25.2469 98.2041 24.9549 101.353 26.3789 104.855C24.5587 103.392 23.5002 101.515 23.5 99.5076C23.5 97.4147 24.6513 95.4577 26.6172 93.9695Z" stroke="#E13A4B"/>
<path d="M44.2228 93.8835C46.2572 95.3818 47.4522 97.3737 47.4523 99.5066C47.4523 101.554 46.3515 103.468 44.465 104.943C45.9295 101.402 45.6378 98.2178 44.9797 95.9382V95.9373C44.7756 95.2351 44.5216 94.5493 44.2228 93.8835Z" stroke="#E13A4B"/>
</svg>
