<?xml version="1.0" encoding="utf-8"?>
<svg width="49" height="138" viewBox="0 0 49 138" fill="none" xmlns="http://www.w3.org/2000/svg">
  <path d="M 1.775 44.414 L 39.946 82.586 C 41.206 83.846 43.36 82.953 43.36 81.172 L 43.36 4.828 C 43.36 3.047 41.206 2.154 39.946 3.414 L 1.775 41.586 C 0.994 42.367 0.994 43.633 1.775 44.414 Z" stroke="#E13A4B" stroke-width="3" stroke-linecap="round" style="transform-box: fill-box; transform-origin: 50% 50%;" transform="matrix(-1, 0, 0, -1, 0.000003, -0.000003)"/>
  <path d="M 35.52 60.319 L 36.006 60.306 C 36.709 60.286 37.39 60.056 37.962 59.646 C 38.259 59.433 38.519 59.177 38.735 58.887 C 36.605 59.252 34.427 59.248 32.298 58.873 C 32.515 59.169 32.778 59.432 33.079 59.649 C 33.652 60.062 34.336 60.293 35.042 60.313 L 35.52 60.327 L 35.52 60.319 Z M 35.962 63.728 C 36.071 63.655 36.159 63.553 36.215 63.433 C 36.271 63.314 36.294 63.182 36.28 63.052 C 36.267 62.921 36.218 62.796 36.139 62.69 C 36.06 62.585 35.954 62.504 35.832 62.454 L 35.528 62.331 L 35.528 62.34 L 35.245 62.475 C 35.132 62.53 35.035 62.613 34.964 62.716 C 34.893 62.819 34.849 62.938 34.838 63.062 C 34.827 63.187 34.849 63.313 34.9 63.427 C 34.952 63.541 35.032 63.639 35.134 63.713 L 35.543 64.01 L 35.962 63.728 Z M 35.96 65.715 C 36.051 65.646 36.125 65.558 36.175 65.456 C 36.225 65.354 36.25 65.242 36.249 65.129 C 36.248 65.016 36.22 64.904 36.168 64.804 C 36.116 64.703 36.04 64.615 35.948 64.549 L 35.537 64.254 L 35.119 64.534 C 35.023 64.598 34.944 64.685 34.888 64.786 C 34.832 64.887 34.801 65.001 34.798 65.116 C 34.795 65.232 34.82 65.346 34.87 65.45 C 34.921 65.554 34.994 65.645 35.087 65.715 L 35.525 66.044 L 35.96 65.715 Z M 35.816 67.751 C 35.931 67.7 36.031 67.62 36.106 67.518 C 36.18 67.417 36.227 67.298 36.241 67.173 C 36.256 67.048 36.237 66.921 36.188 66.806 C 36.138 66.69 36.059 66.589 35.959 66.513 L 35.525 66.184 L 35.089 66.514 C 34.989 66.589 34.91 66.69 34.86 66.806 C 34.811 66.921 34.792 67.048 34.807 67.173 C 34.821 67.298 34.868 67.417 34.942 67.518 C 35.017 67.62 35.117 67.7 35.232 67.751 L 35.525 67.882 L 35.816 67.751 Z" stroke="#E13A4B" style="transform-box: fill-box; transform-origin: 50% 50%;" transform="matrix(-1, 0, 0, -1, 0.000001, 0.000003)"/>
  <path d="M 35.472 90.248 L 35.911 90.194 C 36.688 90.099 37.412 89.753 37.974 89.209 C 38.535 88.665 38.904 87.954 39.024 87.182 L 39.024 87.181 C 39.025 87.174 39.024 87.166 39.021 87.159 C 39.018 87.152 39.013 87.146 39.007 87.141 L 38.785 87 L 38.785 87.131 L 32.166 87.131 L 32.166 87.003 L 31.945 87.144 C 31.939 87.148 31.934 87.155 31.931 87.162 C 31.928 87.169 31.926 87.176 31.927 87.183 C 32.047 87.956 32.416 88.668 32.977 89.212 C 33.539 89.756 34.264 90.102 35.041 90.197 L 35.472 90.25 L 35.472 90.248 Z M 32.087 93.726 L 31.587 93.726 C 31.582 93.726 31.577 93.729 31.574 93.732 C 31.571 93.735 31.569 93.739 31.569 93.744 L 31.569 94.902 C 34.145 94.354 36.807 94.354 39.383 94.901 L 39.383 93.744 C 39.383 93.74 39.381 93.735 39.378 93.732 C 39.374 93.729 39.37 93.726 39.365 93.726 L 38.865 93.726 L 38.865 92.072 L 35.48 92.072 L 35.48 92.075 L 32.087 92.075 L 32.087 93.726 Z" stroke="#E13A4B" style="transform-box: fill-box; transform-origin: 50% 50%;" transform="matrix(-1, 0, 0, -1, 0.000001, -0.000016)"/>
  <path d="M 31.454 85.723 C 31.793 85.705 32.132 85.675 32.47 85.635 C 33.167 84.274 33.697 82.833 34.043 81.343 L 34.043 81.342 C 34.993 77.245 34.503 73.24 32.583 69.391 C 32.207 69.346 31.831 69.312 31.454 69.291 L 31.454 85.723 Z" stroke="#E13A4B" style="transform-box: fill-box; transform-origin: 50% 50%;" transform="matrix(-1, 0, 0, -1, -0.000005, -0.000011)"/>
  <path d="M 27.409 85.145 C 27.764 85.048 28.115 84.938 28.462 84.815 C 29.428 83.501 30.158 82.029 30.613 80.462 L 30.613 80.461 C 31.613 76.95 31.007 73.536 28.78 70.263 C 28.361 70.103 27.934 69.963 27.502 69.842 C 29.45 74.57 29.189 78.815 28.506 81.765 C 28.237 82.921 27.87 84.052 27.409 85.145 Z" stroke="#E13A4B" style="transform-box: fill-box; transform-origin: 50% 50%;" transform="matrix(-1, 0, 0, -1, -0.000001, 0.000008)"/>
  <path d="M 39.57 69.295 C 39.189 69.317 38.809 69.353 38.43 69.401 C 36.52 73.233 36.032 77.221 36.964 81.302 C 37.31 82.804 37.841 84.256 38.543 85.628 C 38.884 85.669 39.227 85.7 39.57 85.72 L 39.57 69.295 Z" stroke="#E13A4B" style="transform-box: fill-box; transform-origin: 50% 50%;" transform="matrix(-1, 0, 0, -1, 0.000008, 0.000003)"/>
  <path d="M 43.616 85.118 C 43.159 84.032 42.796 82.908 42.53 81.759 C 41.847 78.811 41.586 74.575 43.524 69.86 C 43.086 69.986 42.653 70.13 42.228 70.295 C 40.023 73.557 39.427 76.958 40.423 80.456 L 40.422 80.457 C 40.872 82.009 41.593 83.47 42.547 84.775 C 42.899 84.902 43.255 85.017 43.616 85.118 Z" stroke="#E13A4B" style="transform-box: fill-box; transform-origin: 50% 50%;" transform="matrix(-1, 0, 0, -1, 0.000002, -0.000006)"/>
  <path d="M 47.452 82.855 C 47.17 82.216 46.93 81.559 46.735 80.886 L 46.735 80.885 C 46.082 78.621 45.79 75.472 47.214 71.969 C 45.394 73.433 44.335 75.31 44.335 77.317 C 44.335 79.41 45.486 81.367 47.452 82.855 Z" stroke="#E13A4B" style="transform-box: fill-box; transform-origin: 50% 50%;" transform="matrix(-1, 0, 0, -1, -0.000001, -0.000001)"/>
  <path d="M 23.5 82.943 C 25.534 81.445 26.729 79.453 26.73 77.32 C 26.73 75.273 25.629 73.359 23.742 71.883 C 25.207 75.424 24.915 78.609 24.257 80.888 L 24.257 80.889 C 24.053 81.591 23.799 82.277 23.5 82.943 Z" stroke="#E13A4B" style="transform-box: fill-box; transform-origin: 50% 50%;" transform="matrix(-1, 0, 0, -1, 0.000002, -0.000007)"/>
  <path d="M 12.52 82.319 L 13.006 82.306 C 13.709 82.286 14.39 82.056 14.962 81.646 C 15.259 81.434 15.519 81.177 15.735 80.887 C 13.605 81.252 11.427 81.248 9.298 80.873 C 9.515 81.169 9.778 81.432 10.079 81.649 C 10.652 82.062 11.336 82.293 12.042 82.313 L 12.52 82.327 L 12.52 82.319 Z M 12.962 85.728 C 13.071 85.655 13.159 85.553 13.215 85.434 C 13.271 85.315 13.294 85.183 13.28 85.052 C 13.267 84.921 13.218 84.796 13.139 84.69 C 13.06 84.585 12.954 84.504 12.832 84.454 L 12.528 84.331 L 12.528 84.34 L 12.245 84.476 C 12.132 84.53 12.035 84.613 11.964 84.716 C 11.893 84.819 11.849 84.938 11.838 85.062 C 11.827 85.187 11.849 85.313 11.901 85.427 C 11.952 85.541 12.033 85.639 12.134 85.713 L 12.543 86.01 L 12.962 85.728 Z M 12.96 87.715 C 13.051 87.647 13.125 87.558 13.175 87.456 C 13.225 87.354 13.25 87.242 13.249 87.129 C 13.248 87.016 13.22 86.904 13.168 86.804 C 13.116 86.703 13.04 86.615 12.948 86.549 L 12.537 86.254 L 12.119 86.534 C 12.023 86.598 11.944 86.685 11.888 86.786 C 11.832 86.887 11.801 87.001 11.798 87.116 C 11.795 87.232 11.82 87.346 11.87 87.45 C 11.921 87.554 11.995 87.645 12.087 87.715 L 12.525 88.044 L 12.96 87.715 Z M 12.817 89.751 C 12.931 89.7 13.031 89.62 13.106 89.519 C 13.18 89.417 13.227 89.298 13.241 89.173 C 13.256 89.048 13.237 88.921 13.188 88.806 C 13.138 88.69 13.059 88.589 12.959 88.513 L 12.525 88.185 L 12.089 88.514 C 11.989 88.589 11.91 88.69 11.86 88.806 C 11.811 88.921 11.792 89.048 11.807 89.173 C 11.821 89.298 11.868 89.417 11.943 89.519 C 12.017 89.62 12.117 89.7 12.232 89.751 L 12.525 89.882 L 12.817 89.751 Z" stroke="#E13A4B" style="transform-box: fill-box; transform-origin: 50% 50%;" transform="matrix(-1, 0, 0, -1, 0, 0.000003)"/>
  <path d="M 12.472 112.248 L 12.911 112.194 C 13.688 112.099 14.412 111.753 14.975 111.209 C 15.536 110.666 15.904 109.954 16.024 109.183 L 16.024 109.182 C 16.025 109.174 16.025 109.166 16.021 109.159 C 16.018 109.152 16.013 109.146 16.007 109.142 L 15.785 109 L 15.785 109.131 L 9.166 109.131 L 9.166 109.003 L 8.945 109.144 C 8.939 109.149 8.934 109.155 8.931 109.162 C 8.928 109.169 8.926 109.176 8.927 109.183 C 9.047 109.956 9.416 110.668 9.977 111.212 C 10.54 111.756 11.264 112.102 12.041 112.197 L 12.472 112.25 L 12.472 112.248 Z M 9.087 115.726 L 8.587 115.726 C 8.582 115.726 8.578 115.729 8.574 115.732 C 8.571 115.736 8.569 115.74 8.569 115.744 L 8.569 116.902 C 11.145 116.355 13.807 116.354 16.383 116.901 L 16.383 115.744 C 16.383 115.74 16.381 115.736 16.378 115.732 C 16.375 115.729 16.37 115.726 16.365 115.726 L 15.865 115.726 L 15.865 114.072 L 12.48 114.072 L 12.48 114.075 L 9.087 114.075 L 9.087 115.726 Z" stroke="#E13A4B" style="transform-box: fill-box; transform-origin: 50% 50%;" transform="matrix(-1, 0, 0, -1, -0.000002, -0.000006)"/>
  <path d="M 8.454 107.723 C 8.793 107.704 9.132 107.674 9.47 107.635 C 10.167 106.274 10.697 104.833 11.043 103.342 L 11.043 103.341 C 11.993 99.244 11.503 95.24 9.583 91.391 C 9.207 91.345 8.831 91.311 8.454 91.291 L 8.454 107.723 Z" stroke="#E13A4B" style="transform-box: fill-box; transform-origin: 50% 50%;" transform="matrix(-1, 0, 0, -1, 0, -0.000001)"/>
  <path d="M 4.409 107.146 C 4.764 107.049 5.115 106.939 5.462 106.816 C 6.428 105.502 7.158 104.029 7.613 102.462 L 7.613 102.461 C 8.613 98.951 8.007 95.537 5.78 92.263 C 5.36 92.104 4.934 91.964 4.502 91.842 C 6.45 96.57 6.189 100.815 5.506 103.765 C 5.237 104.922 4.87 106.053 4.409 107.146 Z" stroke="#E13A4B" style="transform-box: fill-box; transform-origin: 50% 50%;" transform="matrix(-1, 0, 0, -1, 0.000001, -0.000004)"/>
  <path d="M 16.57 91.295 C 16.189 91.318 15.809 91.354 15.43 91.402 C 13.52 95.233 13.032 99.222 13.964 103.302 C 14.31 104.804 14.841 106.257 15.543 107.628 C 15.884 107.669 16.227 107.7 16.57 107.72 L 16.57 91.295 Z" stroke="#E13A4B" style="transform-box: fill-box; transform-origin: 50% 50%;" transform="matrix(-1, 0, 0, -1, 0, -0.000007)"/>
  <path d="M 20.616 107.118 C 20.159 106.032 19.796 104.909 19.53 103.76 C 18.847 100.811 18.586 96.575 20.524 91.86 C 20.086 91.986 19.653 92.13 19.228 92.295 C 17.023 95.557 16.427 98.959 17.422 102.456 L 17.422 102.457 C 17.872 104.01 18.593 105.47 19.547 106.775 C 19.899 106.903 20.255 107.017 20.616 107.118 Z" stroke="#E13A4B" style="transform-box: fill-box; transform-origin: 50% 50%;" transform="matrix(-1, 0, 0, -1, 0, 0.000003)"/>
  <path d="M 24.452 104.855 C 24.17 104.216 23.93 103.559 23.736 102.886 L 23.735 102.885 C 23.082 100.62 22.79 97.472 24.214 93.97 C 22.394 95.433 21.335 97.31 21.335 99.317 C 21.335 101.41 22.486 103.367 24.452 104.855 Z" stroke="#E13A4B" style="transform-box: fill-box; transform-origin: 50% 50%;" transform="matrix(-1, 0, 0, -1, -0.000001, -0.000012)"/>
  <path d="M 0.5 104.943 C 2.534 103.445 3.729 101.453 3.729 99.32 C 3.729 97.272 2.629 95.358 0.742 93.883 C 2.207 97.424 1.915 100.609 1.257 102.888 L 1.257 102.889 C 1.053 103.591 0.799 104.277 0.5 104.943 Z" stroke="#E13A4B" style="transform-box: fill-box; transform-origin: 50% 50%;" transform="matrix(-1, 0, 0, -1, 0.000001, 0.000003)"/>
</svg>